<?xml version="1.0" encoding="UTF-8" standalone="no"?>
<!DOCTYPE svg PUBLIC "-//W3C//DTD SVG 1.1//EN"
 "http://www.w3.org/Graphics/SVG/1.1/DTD/svg11.dtd">
<!-- Generated by graphviz version 2.28.0 (20110507.0327)
 -->
<!-- Title: G Pages: 1 -->
<svg width="152pt" height="168pt"
 viewBox="0.00 0.00 152.00 168.00" xmlns="http://www.w3.org/2000/svg" xmlns:xlink="http://www.w3.org/1999/xlink">
<g id="graph1" class="graph" transform="scale(1 1) rotate(0) translate(4 164)">
<title>G</title>
<polygon fill="white" stroke="white" points="-4,5 -4,-164 149,-164 149,5 -4,5"/>
<g id="graph2" class="cluster"><title>cluster_Global</title>
<polyline fill="none" stroke="gray" points="20,-8 124,-8 "/>
<path fill="none" stroke="gray" d="M124,-8C130,-8 136,-14 136,-20"/>
<polyline fill="none" stroke="gray" points="136,-20 136,-140 "/>
<path fill="none" stroke="gray" d="M136,-140C136,-146 130,-152 124,-152"/>
<polyline fill="none" stroke="gray" points="124,-152 20,-152 "/>
<path fill="none" stroke="gray" d="M20,-152C14,-152 8,-146 8,-140"/>
<polyline fill="none" stroke="gray" points="8,-140 8,-20 "/>
<path fill="none" stroke="gray" d="M8,-20C8,-14 14,-8 20,-8"/>
<text text-anchor="middle" x="72" y="-139.2" font-family="Times New Roman,serif" font-size="11.00" fill="gray">\</text>
</g>
<g id="graph3" class="cluster"><title>cluster_\Audero</title>
<polyline fill="none" stroke="gray" points="28,-16 116,-16 "/>
<path fill="none" stroke="gray" d="M116,-16C122,-16 128,-22 128,-28"/>
<polyline fill="none" stroke="gray" points="128,-28 128,-112 "/>
<path fill="none" stroke="gray" d="M128,-112C128,-118 122,-124 116,-124"/>
<polyline fill="none" stroke="gray" points="116,-124 28,-124 "/>
<path fill="none" stroke="gray" d="M28,-124C22,-124 16,-118 16,-112"/>
<polyline fill="none" stroke="gray" points="16,-112 16,-28 "/>
<path fill="none" stroke="gray" d="M16,-28C16,-22 22,-16 28,-16"/>
<text text-anchor="middle" x="72" y="-111.2" font-family="Times New Roman,serif" font-size="11.00" fill="gray">Audero</text>
</g>
<g id="graph4" class="cluster"><title>cluster_\Audero\SharedGettext</title>
<polyline fill="none" stroke="gray" points="36,-24 108,-24 "/>
<path fill="none" stroke="gray" d="M108,-24C114,-24 120,-30 120,-36"/>
<polyline fill="none" stroke="gray" points="120,-36 120,-84 "/>
<path fill="none" stroke="gray" d="M120,-84C120,-90 114,-96 108,-96"/>
<polyline fill="none" stroke="gray" points="108,-96 36,-96 "/>
<path fill="none" stroke="gray" d="M36,-96C30,-96 24,-90 24,-84"/>
<polyline fill="none" stroke="gray" points="24,-84 24,-36 "/>
<path fill="none" stroke="gray" d="M24,-36C24,-30 30,-24 36,-24"/>
<text text-anchor="middle" x="72" y="-83.2" font-family="Times New Roman,serif" font-size="11.00" fill="gray">SharedGettext</text>
</g>
<!-- \\Audero\\SharedGettext\\SharedGettext -->
<g id="node4" class="node"><title>\\Audero\\SharedGettext\\SharedGettext</title>
<polygon fill="none" stroke="black" points="112,-68 32,-68 32,-32 112,-32 112,-68"/>
<text text-anchor="middle" x="72" y="-47.2" font-family="Times New Roman,serif" font-size="11.00">SharedGettext</text>
</g>
</g>
</svg>
